<svg width="11" height="8" viewBox="0 0 11 8" fill="none" xmlns="http://www.w3.org/2000/svg">
<path d="M7.83595 2.70399C7.83595 2.70399 7.02395 5.24799 6.96395 5.46399C6.93995 5.25199 6.34795 0.679993 6.34795 0.679993C4.96395 0.679993 4.22795 1.66399 3.83595 2.70399C3.83595 2.70399 2.84795 5.25599 2.76795 5.46799C2.76395 5.26799 2.61595 2.72799 2.61595 2.72799C2.53195 1.45199 1.36795 0.679993 0.42395 0.679993L1.55995 7.60399C3.00795 7.59999 3.78795 6.61999 4.19595 5.57599C4.19595 5.57599 5.06395 3.32399 5.09995 3.22399C5.10795 3.31999 5.72395 7.60399 5.72395 7.60399C7.17595 7.60399 7.95995 6.68799 8.37995 5.68399L10.4159 0.679993C8.97995 0.679993 8.22395 1.65999 7.83595 2.70399Z" fill="white"/>
</svg>
